<svg width="25" height="25" viewBox="0 0 25 25" fill="none" xmlns="http://www.w3.org/2000/svg" style="/*! fill: blue; */">
<path fill-rule="evenodd" clip-rule="evenodd" d="M11.5508 21.7999C11.5508 22.1259 11.7908 22.3969 12.1048 22.4429L12.2008 22.4499H18.2008C20.6978 22.4499 22.7348 20.4819 22.8458 18.0129L22.8508 17.7999V7.7999C22.8508 5.3029 20.8828 3.2659 18.4138 3.1549L18.2008 3.1499H12.2008C11.8418 3.1499 11.5508 3.4409 11.5508 3.7999C11.5508 4.1259 11.7908 4.3969 12.1048 4.4429L12.2008 4.4499H18.2008C19.9888 4.4499 21.4508 5.8519 21.5458 7.6159L21.5508 7.7999V17.7999C21.5508 19.5879 20.1488 21.0499 18.3848 21.1449L18.2008 21.1499H12.2008C11.8418 21.1499 11.5508 21.4409 11.5508 21.7999ZM4.1558 12.7969C4.1558 13.1239 4.3958 13.3939 4.7098 13.4409L4.8058 13.4479L18.2458 13.4519C18.6058 13.4519 18.8958 13.1619 18.8958 12.8019C18.8958 12.4759 18.6558 12.2059 18.3428 12.1589L18.2468 12.1519L4.8068 12.1479C4.4468 12.1479 4.1568 12.4379 4.1568 12.7979L4.1558 12.7969ZM2.5818 10.1779C1.2628 11.6949 1.2158 13.7869 2.4038 15.3069L2.5418 15.4729L6.5458 19.3169C6.8058 19.5649 7.2158 19.5569 7.4658 19.2969C7.6888 19.0639 7.7038 18.7069 7.5158 18.4569L7.4458 18.3779L3.4828 14.5779C2.6608 13.6279 2.6228 12.2529 3.4008 11.2239L3.5238 11.0719L7.4248 7.3159C7.6838 7.0659 7.6908 6.6549 7.4418 6.3959C7.2178 6.1639 6.8618 6.1339 6.6048 6.3119L6.5228 6.3799L2.5818 10.1779Z" fill="#EF4444"/>
</svg>