<svg width="25" height="24" viewBox="0 0 25 24" fill="none" xmlns="http://www.w3.org/2000/svg">
<g clip-path="url(#clip0_135_2757)">
<path fill-rule="evenodd" clip-rule="evenodd" d="M14.2548 1.35205L14.3518 1.36705L14.4438 1.39705L14.4988 1.42205L14.5448 1.44905L14.6048 1.49105L14.6608 1.54105L20.6608 7.53905C20.7808 7.65905 20.8408 7.80505 20.8508 7.95105V17.4961C20.8508 20.4931 19.0108 22.5191 16.1438 22.6411L15.9088 22.6471L8.52678 22.6501C5.58778 22.6501 3.65478 20.6981 3.55478 17.7381L3.55078 17.4961V6.50405C3.55078 3.50705 5.39078 1.48105 8.25678 1.36005L8.49178 1.35405L14.2548 1.35205ZM13.5508 2.64905L8.49578 2.65405C6.30278 2.66805 4.94078 4.03405 4.85578 6.27705L4.85078 6.50405V17.4961C4.85078 19.8131 6.15578 21.2581 8.31478 21.3461L8.52678 21.3501L15.9048 21.3471C18.0978 21.3331 19.4608 19.9661 19.5468 17.7231L19.5508 17.4961V8.64905H16.2008C14.7938 8.64905 13.6428 7.55205 13.5558 6.16705L13.5508 5.99905V2.64905ZM16.8508 18.0001C17.2098 18.0001 17.5008 18.2911 17.5008 18.6501C17.5008 18.9761 17.2608 19.2471 16.9468 19.2931L16.8508 19.3001H9.85078C9.49178 19.3001 9.20078 19.0091 9.20078 18.6501C9.20078 18.3241 9.44078 18.0531 9.75478 18.0071L9.85078 18.0001H16.8508ZM16.8508 14.0001C17.2098 14.0001 17.5008 14.291 17.5008 14.6501C17.5008 14.9761 17.2608 15.2471 16.9468 15.2931L16.8508 15.3001H7.85078C7.49178 15.3001 7.20078 15.0091 7.20078 14.6501C7.20078 14.324 7.44078 14.0531 7.75478 14.0071L7.85078 14.0001H16.8508ZM16.8508 10.0001C17.2098 10.0001 17.5008 10.291 17.5008 10.6501C17.5008 10.9761 17.2608 11.2471 16.9468 11.2931L16.8508 11.3001H9.85078C9.49178 11.3001 9.20078 11.0091 9.20078 10.6501C9.20078 10.324 9.44078 10.0531 9.75478 10.0071L9.85078 10.0001H16.8508ZM14.8508 3.57005V5.99905C14.8508 6.65705 15.3208 7.20505 15.9438 7.32505L16.0708 7.34305L16.2008 7.34905H18.6308L14.8508 3.57005Z" fill="#424750"/>
</g>
<defs>
<clipPath id="clip0_135_2757">
<rect width="24" height="24" fill="white" transform="translate(0.199219)"/>
</clipPath>
</defs>
</svg>
