<svg width="25" height="24" viewBox="0 0 25 24" fill="none" xmlns="http://www.w3.org/2000/svg">
<g clip-path="url(#clip0_135_2769)">
<path d="M12.2008 1.3501C16.9228 1.3501 20.8508 4.9711 20.8508 10.0001C20.8508 14.2771 14.1178 22.6501 12.2008 22.6501C10.2838 22.6501 3.55078 14.2771 3.55078 10.0001C3.55078 4.9711 7.47878 1.3501 12.2008 1.3501ZM12.2008 2.6501C8.17478 2.6501 4.85078 5.7141 4.85078 10.0001C4.85078 12.0151 6.22078 14.6901 8.44578 17.4571C9.31178 18.5341 10.2578 19.5571 11.1018 20.3511C11.4068 20.6381 11.6858 20.8831 11.9168 21.0671L12.0508 21.1671C12.1218 21.2211 12.2148 21.2321 12.2948 21.2011L12.3528 21.1711C12.6058 20.9791 12.9328 20.6961 13.2998 20.3511C14.1438 19.5561 15.0898 18.5341 15.9558 17.4571C18.1818 14.6891 19.5508 12.0151 19.5508 10.0001C19.5508 5.7141 16.2268 2.6501 12.2008 2.6501ZM12.2008 5.3501C14.7688 5.3501 16.8508 7.4321 16.8508 10.0001C16.8508 12.5681 14.7688 14.6501 12.2008 14.6501C9.63278 14.6501 7.55078 12.5681 7.55078 10.0001C7.55078 7.4321 9.63278 5.3501 12.2008 5.3501ZM12.2008 6.6501C10.3508 6.6501 8.85078 8.1501 8.85078 10.0001C8.85078 11.8501 10.3508 13.3501 12.2008 13.3501C14.0508 13.3501 15.5508 11.8501 15.5508 10.0001C15.5508 8.1501 14.0508 6.6501 12.2008 6.6501Z" fill="#424750"/>
</g>
<defs>
<clipPath id="clip0_135_2769">
<rect width="24" height="24" fill="white" transform="translate(0.199219)"/>
</clipPath>
</defs>
</svg>
