<svg width="25" height="24" viewBox="0 0 25 24" fill="none" xmlns="http://www.w3.org/2000/svg">
<g clip-path="url(#clip0_135_2745)">
<path d="M16.465 14.3501C18.84 14.3501 20.941 15.8601 21.709 18.0901L21.781 18.3151L22.44 20.5301C22.7 21.4031 22.202 22.3221 21.329 22.5821C21.227 22.6121 21.123 22.6321 21.017 22.6421L20.858 22.6501H3.525C2.613 22.6501 1.875 21.9111 1.875 21.0001C1.875 20.8981 1.885 20.7961 1.903 20.6961L1.938 20.5461L2.574 18.3211C3.224 16.0471 5.257 14.4551 7.604 14.3551L7.839 14.3501H16.465ZM16.465 15.6501H7.839C6.044 15.6501 4.458 16.7961 3.885 18.4821L3.824 18.6791L3.188 20.9041C3.179 20.9351 3.175 20.9671 3.175 21.0001C3.175 21.1701 3.295 21.3101 3.455 21.3431L3.525 21.3501H20.858C20.892 21.3501 20.926 21.3451 20.958 21.3351C21.12 21.2871 21.221 21.1321 21.207 20.9701L21.194 20.9001L20.534 18.6851C20.019 16.9511 18.464 15.7421 16.673 15.6551L16.465 15.6501ZM12.199 1.3501C15.319 1.3501 17.849 3.8801 17.849 7.0001C17.849 10.1201 15.319 12.6501 12.199 12.6501C9.079 12.6501 6.549 10.1201 6.549 7.0001C6.549 3.8801 9.079 1.3501 12.199 1.3501ZM12.199 2.6501C9.797 2.6501 7.849 4.5981 7.849 7.0001C7.849 9.4021 9.797 11.3501 12.199 11.3501C14.601 11.3501 16.549 9.4021 16.549 7.0001C16.549 4.5981 14.601 2.6501 12.199 2.6501Z" fill="#424750"/>
</g>
<defs>
<clipPath id="clip0_135_2745">
<rect width="24" height="24" fill="white" transform="translate(0.199219)"/>
</clipPath>
</defs>
</svg>
