<svg width="24" height="24" viewBox="0 0 24 24" fill="none" xmlns="http://www.w3.org/2000/svg">
<g opacity="0.6" clip-path="url(#clip0_135_4293)">
<path d="M20.3077 7.76923H0V11.1538H20.3077V7.76923ZM20.3077 1H0V4.38462H20.3077V1ZM0 17.9231H13.5385V14.5385H0V17.9231Z" fill="#323232"/>
<path d="M14.9246 17.9229L14.1884 17.1925C11.5738 14.6084 9.84766 12.9041 9.84766 10.8124C9.84766 9.10813 11.0763 7.76904 12.64 7.76904C13.5233 7.76904 14.3712 8.21725 14.9246 8.92553C15.478 8.21725 16.3258 7.76904 17.2092 7.76904C18.7729 7.76904 20.0015 9.10813 20.0015 10.8124C20.0015 12.9041 18.2753 14.6084 15.6607 17.198L14.9246 17.9229Z" fill="#F94646"/>
</g>
<defs>
<clipPath id="clip0_135_4293">
<rect width="24" height="24" fill="white"/>
</clipPath>
</defs>
</svg>
