<svg xmlns="http://www.w3.org/2000/svg" width="22" height="22" viewBox="0 0 22 22" fill="none">
<path fill-rule="evenodd" clip-rule="evenodd" d="M4.69922 9.20792V9.05025C4.69922 5.57058 7.5198 2.75 10.9995 2.75V2.75C14.4791 2.75 17.2997 5.57058 17.2997 9.05025V9.20792C17.2997 12.3805 13.2829 17.1563 11.6641 18.953C11.3075 19.349 10.6915 19.349 10.3349 18.953C8.71605 17.1563 4.69922 12.3805 4.69922 9.20792Z" stroke="#5D6F7E" stroke-width="1.4468" stroke-linecap="round" stroke-linejoin="round"/>
<path d="M9.16602 9.12541C9.16602 10.1383 9.98643 10.9587 10.9993 10.9587V10.9587C12.0123 10.9587 12.8327 10.1383 12.8327 9.12541V9.0915C12.8327 8.07858 12.0123 7.25816 10.9993 7.25816V7.25816C9.98643 7.25816 9.16602 8.07858 9.16602 9.0915" stroke="#5D6F7E" stroke-width="1.4468" stroke-linecap="round" stroke-linejoin="round"/>
</svg>