<svg width="173" height="40" viewBox="0 0 173 40" fill="none" xmlns="http://www.w3.org/2000/svg">
<path fill-rule="evenodd" clip-rule="evenodd" d="M52.3878 24.9106H57.885V20.7727C57.885 19.4607 57.0158 18.6413 55.2727 18.3188H52.3878V24.9106ZM118.155 24.8925C119.752 24.8925 120.548 23.9522 120.548 22.067V21.1623C120.207 19.3935 119.352 18.5114 117.977 18.5114H111.592C110.232 18.5114 109.381 19.3935 109.04 21.1623V24.8925H118.155H118.155ZM99.5695 27.6377V27.6257C97.5695 27.4927 95.9757 26.2603 94.7959 23.9255C94.5728 23.37 94.4637 22.8148 94.4637 22.264V11.8033C94.5 10.2851 95.4465 9.18366 97.2897 8.49852V22.0491C97.5809 23.8942 98.582 24.8389 100.298 24.8926H100.826V15.8425C102.791 16.6172 103.774 17.7769 103.774 19.3218V19.4964L103.756 24.8925H106.173V21.3326C106.173 18.5517 107.702 16.7068 110.769 15.8068L111.551 15.7081H117.977C120.07 15.7081 121.736 16.9128 122.965 19.3218C123.188 19.904 123.301 20.4369 123.301 20.9297V22.3579C123.301 24.4224 122.078 26.0569 119.624 27.2705C119.038 27.4854 118.487 27.6108 117.977 27.6378H100.298H99.961H99.5695L99.5695 27.6377ZM73.23 18.395H72.4061C70.0854 18.395 68.7839 19.2188 68.4971 20.8714V21.955C68.4971 23.6163 69.5438 24.5927 71.6371 24.8925H86.1541C88.4884 24.8925 89.6533 23.9881 89.6533 22.1833H89.6716V15.6319C91.4648 16.2903 92.3611 17.553 92.3611 19.4204V22.3222C92.4157 24.4314 91.1962 26.0972 88.7115 27.3062C88.1609 27.5258 87.6102 27.6377 87.0596 27.6377H71.0911C68.9567 27.6377 67.2729 26.4198 66.0399 23.9835C65.8167 23.4283 65.7076 22.8821 65.7076 22.3402V20.9473C65.7439 18.8965 66.9817 17.262 69.4209 16.0394C69.9807 15.82 70.5405 15.7081 71.0911 15.7081H73.23V18.395L73.23 18.395ZM79.2004 28.9094C79.5827 28.9094 79.9058 29.0437 80.1743 29.308C80.4428 29.5722 80.5749 29.8902 80.5749 30.2664C80.5749 30.6379 80.4428 30.9559 80.1743 31.2201C79.9058 31.4843 79.5827 31.6187 79.2004 31.6187C78.8228 31.6187 78.4997 31.4844 78.2403 31.2201C77.9762 30.9559 77.8444 30.6379 77.8444 30.2664C77.8444 29.8902 77.9762 29.5722 78.2403 29.308C78.4997 29.0437 78.8228 28.9094 79.2004 28.9094ZM38.9906 25.8553C38.1667 26.5271 37.4342 27.0152 36.7925 27.3286C36.2554 27.5348 35.7186 27.6378 35.1815 27.6378H5.37876C3.2446 27.6378 1.56526 26.3928 0.332219 23.9029C0.109076 23.3523 0 22.8014 0 22.264V21.0236C0 18.9099 1.24222 17.2441 3.73157 16.0171C4.2822 15.7978 4.83283 15.6902 5.37876 15.6902H7.44479V18.4757H6.30255C4.34141 18.4757 3.20831 19.2994 2.9079 20.9473V22.1476C2.9079 23.9612 4.16839 24.8792 6.69868 24.8925H35.0633C36.4646 24.6059 37.293 23.8851 37.5571 22.7251L37.6161 21.3549C37.6161 19.689 36.6922 18.7262 34.8448 18.453H12.0592V13.4691C12.0592 11.548 13.2698 9.99407 15.6952 8.80739C16.2688 8.58781 16.8056 8.48047 17.3061 8.48047H34.4716V11.1674H17.5201C15.7544 11.5032 14.8671 12.269 14.8671 13.469V15.7081H34.9221C36.5239 15.7081 37.5751 15.9097 38.0847 16.3082C39.6458 17.4813 40.424 19.0262 40.424 20.9473V22.5729C40.7651 24.1314 41.6117 24.9015 42.9585 24.8925H44.9789V8.38184H47.8689V24.8925H48.4195H49.0247H49.6346V15.7081H55.4684C55.9418 15.7081 56.4651 15.8201 57.0431 16.0394C59.4139 17.1993 60.5972 18.9055 60.5972 21.1623V27.6377H49.0064H48.4195H42.9585H42.8403H42.8152H42.2304L42.2299 27.5892C41.9011 27.5368 41.5743 27.4421 41.2476 27.3062C40.5967 26.9973 39.8412 26.5137 38.9905 25.8553H38.9906Z" fill="white"/>
<path d="M140.67 35.5124V4.09911L150.606 9.1409L150.591 14.1873L147.728 15.5046L147.641 15.5447V15.6408V39V39.15H147.791H151.843H151.992L151.993 39.0004C152.007 34.1405 152.021 29.2806 152.036 24.4207C152.044 21.6411 152.053 18.8615 152.061 16.0819L158.614 19.6163V25.6065L156.228 26.6063L156.136 26.6449V26.7447V38.9708V39.1688L156.327 39.1152L159.984 38.0874L160.094 38.0567V37.943V27.2527L165.184 29.9946V29.9984V30.0069V30.0155V30.0241V30.0326V30.0412V30.0498V30.0584V30.067V30.0756V30.0843V30.0929V30.1015V30.1102V30.1188V30.1275V30.1362V30.1449V30.1536V30.1623V30.171V30.1797V30.1885V30.1972V30.206V30.2147V30.2235V30.2323V30.241V30.2498V30.2586V30.2674V30.2763V30.2851V30.2939V30.3027V30.3116V30.3205V30.3293V30.3382V30.3471V30.356V30.3648V30.3737V30.3827V30.3916V30.4005V30.4094V30.4184V30.4273V30.4363V30.4452V30.4542V30.4632V30.4721V30.4811V30.4901V30.4991V30.5081V30.5172V30.5262V30.5352V30.5443V30.5533V30.5623V30.5714V30.5805V30.5895V30.5986V30.6077V30.6168V30.6259V30.635V30.6441V30.6532V30.6623V30.6715V30.6806V30.6897V30.6989V30.708V30.7172V30.7263V30.7355V30.7447V30.7539V30.763V30.7722V30.7814V30.7906V30.7998V30.809V30.8183V30.8275V30.8367V30.846V30.8552V30.8644V30.8737V30.8829V30.8922V30.9015V30.9107V30.92V30.9293V30.9386V30.9479V30.9571V30.9664V30.9757V30.9851V30.9944V31.0037V31.013V31.0223V31.0317V31.041V31.0503V31.0597V31.069V31.0784V31.0877V31.0971V31.1064V31.1158V31.1252V31.1345V31.1439V31.1533V31.1627V31.1721V31.1815V31.1909V31.2003V31.2097V31.2191V31.2285V31.2379V31.2473V31.2567V31.2662V31.2756V31.285V31.2944V31.3039V31.3133V31.3228V31.3322V31.3417V31.3511V31.3606V31.37V31.3795V31.3889V31.3984V31.4079V31.4173V31.4268V31.4363V31.4457V31.4552V31.4647V31.4742V31.4837V31.4932V31.5026V31.5121V31.5216V31.5311V31.5406V31.5501V31.5596V31.5691V31.5786V31.5881V31.5976V31.6071V31.6167V31.6262V31.6357V31.6452V31.6547V31.6642V31.6737V31.6833V31.6928V31.7023V31.7118V31.7214V31.7309V31.7404V31.7499V31.7595V31.769V31.7785V31.7881V31.7976V31.8071V31.8167V31.8262V31.8357V31.8452V31.8548V31.8643V31.8739V31.8834V31.8929V31.9025V31.912V31.9215V31.9311V31.9406V31.9501V31.9597V31.9692V31.9787V31.9883V31.9978V32.0074V32.0169V32.0264V32.036V32.0455V32.055V32.0646V32.0741V32.0836V32.0931V32.1027V32.1122V32.1217V32.1313V32.1408V32.1503V32.1598V32.1694V32.1789V32.1884V32.1979V32.2074V32.217V32.2265V32.236V32.2455V32.255V32.2645V32.274V32.2835V32.293V32.3025V32.312V32.3215V32.331V32.3405V32.35V32.3595V32.369V32.3785V32.388V32.3975V32.407V32.4164V32.4259V32.4354V32.4449V32.4543V32.4638V32.4733V32.4827V32.4922V32.5016V32.5111V32.5206V32.53V32.5394V32.5489V32.5583V32.5678V32.5772V32.5866V32.5961V32.6055V32.6149V32.6243V32.6337V32.6432V32.6526V32.662V32.6714V32.6808V32.6902V32.6996V32.7089V32.7183V32.7277V32.7371V32.7465V32.7558V32.7652V32.7746V32.7839V32.7933V32.8026V32.812V32.8213V32.8306V32.84V32.8493V32.8586V32.8679V32.8773V32.8866V32.8959V32.9052V32.9145V32.9238V32.9331V32.9423V32.9516V32.9609V32.9702V32.9794V32.9887V32.9979V33.0072V33.0164V33.0257V33.0349V33.0441V33.0533V33.0626V33.0718V33.081V33.0902V33.0994V33.1086V33.1177V33.1269V33.1361V33.1453V33.1544V33.1636V33.1727V33.1819V33.191V33.2001V33.2093V33.2184V33.2275V33.2366V33.2457V33.2548V33.2639V33.273V33.282V33.2911V33.3002V33.3092V33.3183V33.3273V33.3363V33.3454V33.3544V33.3634V33.3724V33.3814V33.3904V33.3994V33.4084V33.4174V33.4263V33.4353V33.4442V33.4532V33.4621V33.471V33.48V33.4889V33.4978V33.5067V33.5156V33.5245V33.5333V33.5422V33.5511V33.5599V33.5688V33.5776V33.5864V33.5953V33.6041V33.6129V33.6217V33.6305V33.6393V33.648V33.6568V33.6655V33.6743V33.683V33.6918V33.7005V33.7092V33.7179V33.7266V33.7353V33.744V33.7526V33.7613V33.77V33.7786V33.7872V33.7959V33.8045V33.8131V33.8217V33.8303V33.8388V33.8474V33.856V33.8645V33.8731V33.8816V33.8901V33.8986V33.9071V33.9156V33.9241V33.9326V33.9411V33.9495V33.958V33.9664V33.9748V33.9832V33.9916V34V34.0084V34.0168V34.0252V34.0335V34.0419V34.0502V34.0585V34.0668V34.0751V34.0834V34.0917V34.1V34.1082V34.1165V34.1247V34.1329V34.1412V34.1494V34.1576V34.1657V34.1739V34.1821V34.1902V34.1984V34.2065V34.2146V34.2227V34.2308V34.2389V34.247V34.255V34.2631V34.2711V34.2791V34.2871V34.2951V34.3031V34.3111V34.3191V34.327V34.335V34.3429V34.3508V34.3587V34.3666V34.3745V34.3824V34.3902V34.3981V34.4059V34.4137V34.4215V34.4293V34.4371V34.4449V34.4526V34.4604V34.4681V34.4758V34.4835V34.4912V34.4989V34.5066V34.5142V34.5219V34.6679L165.33 34.6718C165.403 34.6738 165.476 34.6445 165.534 34.6156C165.598 34.5841 165.667 34.5404 165.739 34.4903C165.883 34.3896 166.048 34.2538 166.21 34.1113C166.534 33.8261 166.859 33.5034 166.997 33.3544C168.56 31.6678 169.798 29.7344 170.668 27.6507C171.637 25.3294 172.151 22.8256 172.151 20.2717C172.151 14.9078 169.94 10.0519 166.367 6.53763L166.262 6.64457L166.367 6.53762C162.794 3.02346 157.858 0.85 152.407 0.85C150.673 0.85 148.952 1.07551 147.288 1.515L147.326 1.66003L147.288 1.515C145.649 1.94791 144.065 2.58958 142.579 3.42887L140.277 2.26064L140.212 2.22779L140.146 2.25819L136.711 3.842L136.624 3.88221V3.97822V8.60605C135.36 10.2596 134.382 12.0904 133.714 14.0251L133.856 14.074L133.714 14.0251C133.023 16.0255 132.663 18.1347 132.663 20.2717C132.663 22.4981 133.053 24.6923 133.8 26.7635C134.648 29.1131 135.494 30.5368 136.539 31.7723C137.23 32.5892 138.009 33.3261 138.926 34.1924C139.386 34.6267 139.88 35.0935 140.415 35.6193L140.67 35.8703V35.5124ZM135.113 14.4947L134.971 14.4457L135.113 14.4947C135.503 13.3633 136.009 12.2701 136.624 11.2322V29.3118C136.051 28.3443 135.572 27.3279 135.193 26.2765L135.052 26.3273L135.193 26.2765C134.503 24.3636 134.143 22.3341 134.143 20.2717C134.143 18.2914 134.475 16.3408 135.113 14.4947ZM169.303 27.0954C168.645 28.6721 167.758 30.1564 166.664 31.4997V29.2223V29.1327L166.585 29.0903L160.094 25.5937V18.8421V18.7526L160.015 18.7101L152.066 14.4225L152.084 8.34426L152.084 8.25185L152.002 8.21004L144.173 4.23789C145.292 3.68253 146.464 3.24305 147.669 2.92472C149.206 2.51886 150.798 2.3106 152.407 2.3106C157.451 2.3106 162.017 4.32144 165.322 7.57209C168.627 10.8227 170.671 15.3126 170.671 20.2717C170.671 22.6395 170.197 24.9548 169.303 27.0954ZM157.616 37.2354V27.6083L158.614 27.1902V36.955L157.616 37.2354ZM149.121 37.6894V16.4703L150.587 15.796L150.521 37.6894H149.121ZM138.104 31.2842V4.80683L139.19 4.30605V32.3527L138.104 31.2842Z" fill="white" stroke="white" stroke-width="0.3"/>
</svg>
