<svg xmlns="http://www.w3.org/2000/svg" width="20" height="20" viewBox="0 0 20 20" fill="none">
<path d="M5.00001 8.33333L3.19035 6.52368C2.26988 5.60321 2.26988 4.11083 3.19035 3.19035V3.19035C3.63238 2.74832 4.2319 2.49999 4.85702 2.49999C5.48214 2.49999 6.08166 2.74832 6.52369 3.19035L8.33335 5" stroke="#173046" stroke-width="1.5" stroke-linecap="round" stroke-linejoin="round"/>
<path d="M4.16602 7.5L7.49935 4.16667" stroke="#173046" stroke-width="1.5" stroke-linecap="round" stroke-linejoin="round"/>
<path d="M14.9993 11.6667L16.4234 13.0908C16.6561 13.3234 16.8147 13.6198 16.8792 13.9424L17.491 17.0014C17.5183 17.138 17.4756 17.2792 17.3771 17.3777C17.2786 17.4762 17.1373 17.519 17.0007 17.4917L13.9417 16.8799C13.6191 16.8154 13.3228 16.6568 13.0901 16.4241L11.666 15" stroke="#173046" stroke-width="1.5" stroke-linecap="round" stroke-linejoin="round"/>
<path fill-rule="evenodd" clip-rule="evenodd" d="M14.8 8.96667L6.51668 17.25C6.18288 17.5834 5.64215 17.5834 5.30835 17.25L2.75001 14.6917C2.41666 14.3579 2.41666 13.8171 2.75001 13.4833L13.4833 2.75C13.8172 2.41665 14.3579 2.41665 14.6917 2.75L17.25 5.30833C17.5834 5.64214 17.5834 6.18286 17.25 6.51667L14.8 8.96667Z" stroke="#173046" stroke-width="1.5" stroke-linecap="round" stroke-linejoin="round"/>
<path d="M12.6012 5.53003L11.6523 4.58113" stroke="#173046" stroke-width="1.5" stroke-linecap="round" stroke-linejoin="round"/>
<path d="M10.6605 8.30373L9.29492 6.93816" stroke="#173046" stroke-width="1.5" stroke-linecap="round" stroke-linejoin="round"/>
<path d="M7.8864 10.2441L6.9375 9.29518" stroke="#173046" stroke-width="1.5" stroke-linecap="round" stroke-linejoin="round"/>
<path d="M5.9476 13.0178L4.58203 11.6522" stroke="#173046" stroke-width="1.5" stroke-linecap="round" stroke-linejoin="round"/>
</svg>