<svg width="405" height="599" viewBox="0 0 405 599" fill="none" xmlns="http://www.w3.org/2000/svg">
<path d="M283.669 582.85L292.555 590.005V438.525L299.358 430.721V586.454L343.288 563.288V411.382L350.09 411.318V559.705V567.306V568.848L292.034 599V598.713L276.866 587.135V586.518V577.375V451.198L283.669 443.405V582.85Z" fill="#FBFBFB"/>
<path d="M143.11 582.776L151.996 589.931V438.451L158.799 430.658V586.38L202.729 563.214V411.319L209.521 411.244V559.631V567.232V568.774L151.475 598.925V598.638L136.307 587.06V586.444V577.301V451.124L143.11 443.331V582.776Z" fill="#FBFBFB"/>
<path d="M283.637 402.91L292.534 410.065V258.574L299.326 250.781V406.514L343.256 383.337V231.442L350.058 231.367V379.754V387.366V388.897L292.013 419.048V418.761V418.772L276.845 407.183V406.577V397.434V271.257L283.637 263.464V402.91Z" fill="#FBFBFB"/>
<path d="M338.579 561.417L331.787 561.492V413.105V405.493V403.951L389.832 373.8V374.087L405 385.665V386.281V395.425V521.602L398.197 529.395V389.949L389.311 382.794V534.275L382.509 542.078V386.345L338.579 409.512V561.417Z" fill="#FBFBFB"/>
<path d="M6.79197 443.331V582.776L15.6885 589.931V438.451L22.4805 430.658V586.38L66.4105 563.214V411.319L73.2131 411.244V559.631V567.232V568.774L15.1571 598.925L15.1677 598.638H15.1571L-0.010643 587.06V586.444V577.301V451.124L6.79197 443.331Z" fill="#FBFBFB"/>
<path d="M204.259 231.845L211.062 231.771V380.157V387.769V389.3L153.006 419.452L153.016 419.165H153.006L137.838 407.587V406.981V397.838V271.661L144.641 263.857V403.302L153.526 410.457V258.977L160.329 251.184V406.906L204.259 383.74V231.845Z" fill="#FBFBFB"/>
<path d="M282.819 215.122L291.715 222.277V70.7963L298.507 63.0033V218.726L342.437 195.559V43.6643L349.24 43.5898V191.976V199.589V201.12L291.184 231.271V230.984L276.016 219.406V218.8V209.657V83.4799L282.819 75.6763V215.122Z" fill="#FBFBFB"/>
<path d="M61.7337 563.968L54.9311 564.043V415.656V408.054V406.513L112.987 376.361V376.648L128.155 388.226V388.843V397.986V524.163L121.352 531.956V392.511L112.466 385.356V536.836L105.664 544.629V388.907L61.7337 412.073V563.968Z" fill="#FBFBFB"/>
<path d="M198.849 563.968L192.046 564.043V415.656V408.054V406.513L250.102 376.361V376.648L265.27 388.226V388.843V397.986V524.163L258.467 531.956V392.511L249.581 385.356V536.836L242.779 544.629V388.907L198.849 412.073V563.968Z" fill="#FBFBFB"/>
<path d="M258.467 204.33L249.581 197.175V348.655L242.779 356.448V200.726L198.849 223.893V375.787L192.046 375.862V227.475V219.874V218.332L250.102 188.181V188.468L265.27 200.046V200.662V209.806V335.982L258.467 343.775V204.33Z" fill="#FBFBFB"/>
<path d="M397.708 204.33L388.822 197.175V348.655L382.02 356.448V200.726L338.09 223.893V375.787L331.287 375.862V227.475V219.874V218.332L389.343 188.181V188.468L404.511 200.046V200.662V209.806V335.982L397.708 343.775V204.33Z" fill="#FBFBFB"/>
<path d="M397.708 16.1495L388.822 8.99441V160.475L382.02 168.268V12.5454L338.09 35.7118V187.607L331.287 187.681V39.2947V31.6824V30.1515L389.343 0V0.287056L404.511 11.865V12.4816V21.6249V147.802L397.708 155.595V16.1495Z" fill="#FBFBFB"/>
</svg>
