<svg width="20" height="20" viewBox="0 0 20 20" fill="none" xmlns="http://www.w3.org/2000/svg">
<path d="M18.5 9H11V1.5C11 1.23478 10.8946 0.98043 10.7071 0.792893C10.5196 0.605357 10.2652 0.5 10 0.5C9.73478 0.5 9.48043 0.605357 9.29289 0.792893C9.10536 0.98043 9 1.23478 9 1.5V9H1.5C1.23478 9 0.98043 9.10536 0.792893 9.29289C0.605357 9.48043 0.5 9.73478 0.5 10C0.5 10.2652 0.605357 10.5196 0.792893 10.7071C0.98043 10.8946 1.23478 11 1.5 11H9V18.5C9 18.7652 9.10536 19.0196 9.29289 19.2071C9.48043 19.3946 9.73478 19.5 10 19.5C10.2652 19.5 10.5196 19.3946 10.7071 19.2071C10.8946 19.0196 11 18.7652 11 18.5V11H18.5C18.7652 11 19.0196 10.8946 19.2071 10.7071C19.3946 10.5196 19.5 10.2652 19.5 10C19.5 9.73478 19.3946 9.48043 19.2071 9.29289C19.0196 9.10536 18.7652 9 18.5 9Z" fill="#232323"/>
</svg>