<svg xmlns="http://www.w3.org/2000/svg" width="16" height="15" viewBox="0 0 16 15" fill="none">
<path d="M5.02499 6.13774C4.43133 6.13774 3.90127 6.00726 3.43482 5.7463C2.97897 5.48534 2.62383 5.14087 2.36941 4.71289C2.11498 4.27448 1.98776 3.79431 1.98776 3.27239C1.98776 3.17844 1.99836 3.02708 2.01957 2.81832C2.05137 2.59911 2.12028 2.23898 2.22629 1.73794C2.3323 1.23689 2.42771 0.798478 2.51252 0.422694L3.91187 0.782821C3.62564 1.96236 3.47193 2.71393 3.45072 3.03752C3.44012 3.08972 3.43482 3.15757 3.43482 3.24107C3.43482 3.61686 3.57264 3.91435 3.84827 4.13356C4.1239 4.34233 4.51614 4.44671 5.02499 4.44671H11.8786C12.3663 4.44671 12.732 4.32145 12.9759 4.07093C13.2197 3.82041 13.3416 3.51247 13.3416 3.14713C13.3416 2.76091 13.2674 2.22333 13.119 1.53439C12.9812 0.845451 12.9017 0.45401 12.8805 0.360064L14.3116 -6.18624e-05C14.6614 1.46132 14.8364 2.52604 14.8364 3.1941C14.8364 3.66383 14.7198 4.12834 14.4865 4.58763C14.2639 5.03649 13.9353 5.40705 13.5006 5.69932C13.066 5.9916 12.5465 6.13774 11.9423 6.13774H5.02499ZM7.55337 7.24272H9.31846V8.96506H7.55337V7.24272Z" fill="#173046"/>
<path d="M2.94182 15C1.87111 15 1.11312 14.7077 0.667873 14.1232C0.233226 13.5386 0.0159017 12.7035 0.0159017 11.6179L0 4.74423H1.49476L1.51067 11.6179C1.51067 12.119 1.54247 12.4843 1.60608 12.714C1.66968 12.9332 1.7969 13.0898 1.98772 13.1837C2.17854 13.2672 2.49657 13.309 2.94182 13.309H3.29166L3.38707 14.1701L3.29166 15H2.94182Z" fill="#173046"/>
<path d="M7.26995 12.3382C7.26995 12.7662 7.46607 13.0585 7.85831 13.215C8.01733 12.9645 8.34066 12.4791 8.82831 11.7589L9.5598 10.6472C10.1005 9.83297 10.6305 9.24842 11.15 8.89351C11.68 8.52817 12.3002 8.3455 13.0105 8.3455C13.6359 8.3455 14.1713 8.50207 14.6165 8.81523C15.0724 9.12838 15.4169 9.55114 15.6502 10.0835C15.8834 10.6054 16 11.1691 16 11.7745C16 12.4113 15.8516 12.9749 15.5547 13.4656C15.2579 13.9457 14.8498 14.3215 14.3303 14.5929C13.8215 14.8643 13.2543 15 12.6288 15H8.52618C8.20815 15 7.85831 14.9322 7.47667 14.7965C7.09503 14.6503 6.7664 14.4311 6.49077 14.1388C6.19393 14.4102 5.84409 14.6242 5.44125 14.7808C5.04901 14.9269 4.66206 15 4.28042 15H3.1355V13.309H4.29632C4.75217 13.309 5.11261 13.2307 5.37764 13.0741C5.64267 12.9175 5.77519 12.6722 5.77519 12.3382V10.0365H7.26995V12.3382ZM12.6288 13.309C13.2331 13.309 13.6995 13.1837 14.0282 12.9332C14.3568 12.6722 14.5211 12.286 14.5211 11.7745C14.5211 11.2317 14.3939 10.809 14.1395 10.5063C13.8957 10.1931 13.514 10.0365 12.9946 10.0365C12.5599 10.0365 12.1995 10.1409 11.9133 10.3497C11.6376 10.548 11.2719 10.9447 10.816 11.5397C10.6994 11.6754 10.4238 12.0459 9.98915 12.6514C9.67111 13.0898 9.51209 13.309 9.51209 13.309H12.6288Z" fill="#173046"/>
</svg>