<svg width="70" height="50" viewBox="0 0 70 50" fill="none" xmlns="http://www.w3.org/2000/svg">
<path fill-rule="evenodd" clip-rule="evenodd" d="M46.1546 10.939L45.9749 11.1187C45.8594 11.2403 45.7199 11.3366 45.5653 11.4015C45.4106 11.4665 45.2442 11.4987 45.0765 11.496C44.7504 11.5133 44.4297 11.4075 44.178 11.1995L36.0917 3.11327C35.8601 2.87092 35.7285 2.55001 35.7234 2.21479C35.7228 2.04739 35.756 1.88158 35.8208 1.72723C35.8856 1.57288 35.9808 1.43314 36.1007 1.31632L36.2894 1.12764L36.1456 0.983887L32.9561 4.07463L33.0998 4.22737L33.2885 4.03869C33.4036 3.9159 33.5428 3.81819 33.6974 3.75171C33.852 3.68523 34.0187 3.6514 34.187 3.65235C34.5226 3.65569 34.8441 3.78752 35.0854 4.02072L43.7916 12.7L40.7368 15.7548C40.4835 16.0379 40.169 16.2595 39.8171 16.4028C39.4652 16.546 39.0853 16.6071 38.7063 16.5814C37.9041 16.4627 37.1644 16.0802 36.6039 15.4942L36.2894 15.1708C36.1007 14.9844 35.9429 14.769 35.8222 14.5329C35.6208 14.1789 35.4939 13.7875 35.4491 13.3827C35.4043 12.978 35.4426 12.5683 35.5616 12.1789C35.58 12.1315 35.5992 12.085 35.6183 12.0387C35.6643 11.927 35.7096 11.8171 35.7413 11.7027C35.852 11.2992 35.8975 10.8806 35.8761 10.4628C35.8604 10.0981 35.7908 9.73781 35.6694 9.39359C35.4825 8.84738 35.1755 8.35002 34.771 7.93807C34.4117 7.53716 33.9709 7.21756 33.4782 7.00064C32.9855 6.78372 32.4522 6.67447 31.9138 6.6802C30.7807 6.76071 29.7236 7.2796 28.9668 8.12674L23.7827 13.3019L23.9444 13.4367L24.0252 13.2391C24.141 13.1171 24.2803 13.02 24.4348 12.9536C24.5892 12.8871 24.7556 12.8528 24.9237 12.8527C25.2498 12.8355 25.5704 12.9413 25.8222 13.1492L33.9534 21.2355C34.181 21.4797 34.3092 21.8001 34.3128 22.1339C34.3226 22.3183 34.2915 22.5026 34.2216 22.6735C34.1516 22.8444 34.0447 22.9977 33.9084 23.1223L33.7198 23.3109L33.8635 23.4547L37.0531 20.2741L36.9004 20.1303L36.7117 20.319C36.5949 20.4389 36.4551 20.5341 36.3008 20.599C36.1464 20.6638 35.9806 20.6969 35.8132 20.6964C35.478 20.6912 35.1571 20.5597 34.9147 20.328L26.2355 11.6488L29.2903 8.59395C29.5498 8.32612 29.8663 8.12005 30.2162 7.99097C30.5661 7.86189 30.9406 7.8131 31.3119 7.84822C32.1333 7.94861 32.895 8.32944 33.4682 8.92639C33.4682 8.95351 33.5206 9.00029 33.6017 9.07265L33.6017 9.07267L33.6017 9.07269C33.6549 9.12017 33.7205 9.17866 33.7916 9.24984C33.9747 9.43896 34.1291 9.65388 34.2499 9.88775C34.4522 10.2413 34.5805 10.6323 34.6268 11.037C34.6731 11.4417 34.6366 11.8516 34.5194 12.2418C34.4465 12.3963 34.3834 12.5554 34.3307 12.7179C34.1342 13.4788 34.1591 14.2799 34.4026 15.027C34.7012 15.7982 35.2197 16.4647 35.8938 16.9439C36.5678 17.4231 37.3677 17.6938 38.1942 17.7224C39.3158 17.6254 40.3561 17.0972 41.0962 16.2489L46.2804 11.0737L46.1546 10.939ZM7.34951 30.3101C7.35148 30.7545 7.2532 31.1937 7.062 31.5949C6.88862 31.9658 6.63896 32.2959 6.32932 32.5638C6.01968 32.8316 5.65703 33.0311 5.26505 33.1493C5.01238 33.2469 4.74513 33.3016 4.47439 33.311C3.89372 33.3267 3.3177 33.2035 2.79425 32.9516V32.7899C3.50804 32.968 4.26234 32.8785 4.91465 32.5383C5.19522 32.3879 5.4415 32.1808 5.63792 31.9303C5.83433 31.6797 5.9766 31.3911 6.05571 31.0828C6.11497 30.8907 6.14526 30.6908 6.14555 30.4898V30.1394C6.17408 29.4896 5.96666 28.8513 5.56155 28.3424C5.37213 28.1236 5.13531 27.9507 4.86909 27.8371C4.60287 27.7234 4.31425 27.6719 4.02516 27.6865H2.22821V37.1205C2.22902 37.2519 2.25652 37.3818 2.30903 37.5023C2.36154 37.6227 2.43797 37.7313 2.53369 37.8213C2.6217 37.919 2.73007 37.9962 2.85116 38.0474C2.97225 38.0987 3.10311 38.1227 3.2345 38.1178H3.43217V38.2706H0V38.1178H0.206648C0.33749 38.1187 0.467133 38.0928 0.587637 38.0419C0.70814 37.9909 0.81697 37.9158 0.907458 37.8213C1.09751 37.637 1.20727 37.3852 1.21294 37.1205V28.3334C1.1847 28.0819 1.06666 27.849 0.880503 27.6776C0.697797 27.5072 0.456431 27.4139 0.206648 27.417H0.0179699V27.2643H4.12399C4.98973 27.215 5.84058 27.5051 6.49596 28.0729C6.7892 28.3636 7.01703 28.7136 7.16423 29.0994C7.31142 29.4852 7.37459 29.8979 7.34951 30.3101ZM11.2307 27.7495H12.237L13.1804 27.7675C13.4511 27.7698 13.7177 27.8332 13.9604 27.953C14.2031 28.0728 14.4156 28.2458 14.582 28.4593C14.9466 28.9496 15.1392 29.5465 15.1301 30.1574V30.5078C15.1298 30.7088 15.0995 30.9087 15.0403 31.1008C14.8784 31.6135 14.5458 32.0554 14.0979 32.3529C13.6501 32.6504 13.1138 32.7856 12.5784 32.736H12.0753H11.7518V32.8887C11.9476 32.9046 12.138 32.9606 12.3112 33.0534C12.4843 33.1462 12.6365 33.2736 12.7581 33.4278C12.8088 33.4824 12.8595 33.5455 12.9088 33.6068L12.9088 33.6068L12.9089 33.6069C12.973 33.6867 13.0347 33.7634 13.0906 33.8142C13.1798 33.8953 13.4963 34.3503 14.0268 35.1129L14.2047 35.3685C14.8426 36.285 15.2289 36.833 15.3727 36.9948C15.5313 37.1714 15.6992 37.3393 15.8758 37.4979C16.4832 37.9832 17.2367 38.2492 18.0142 38.2526H18.9127V38.0999C18.5736 38.099 18.2389 38.0223 17.9333 37.8753C17.789 37.8079 17.6532 37.7235 17.529 37.6237C17.3958 37.5249 17.2697 37.4168 17.1517 37.3002C17.106 37.2581 17.0548 37.2008 16.9905 37.1288L16.9905 37.1288C16.8905 37.0169 16.7591 36.8698 16.5677 36.6893C16.2532 36.3928 15.6692 35.5932 14.7707 34.3083C14.5968 34.0692 14.4045 33.8439 14.1957 33.6345C14.0348 33.4613 13.8466 33.3156 13.6386 33.2032C14.002 33.2068 14.3615 33.1278 14.6899 32.9722C15.0184 32.8165 15.3071 32.5883 15.5344 32.3047C16.0481 31.6912 16.3225 30.9125 16.3071 30.1125C16.3214 29.7315 16.2561 29.3517 16.1153 28.9975C15.9745 28.6432 15.7614 28.3222 15.4895 28.055C15.1865 27.7804 14.8318 27.569 14.4461 27.4332C14.0604 27.2974 13.6515 27.24 13.2433 27.2643H8.99353V27.417H9.20018C9.46192 27.4236 9.71139 27.5293 9.89819 27.7128C10.085 27.8963 10.1952 28.1438 10.2065 28.4054V37.1385C10.2045 37.2684 10.1764 37.3966 10.1239 37.5154C10.0714 37.6343 9.99562 37.7414 9.90099 37.8303C9.80882 37.922 9.69948 37.9946 9.57922 38.0439C9.45897 38.0932 9.33016 38.1184 9.20018 38.1179H8.99353V38.2706H12.4257V38.1179H12.237C12.1032 38.1207 11.9703 38.0958 11.8466 38.0448C11.7229 37.9937 11.6111 37.9177 11.5182 37.8214C11.4249 37.7304 11.3513 37.6213 11.3018 37.5008C11.2524 37.3802 11.2282 37.2508 11.2307 37.1206V27.7495ZM19.3802 38.1177C19.511 38.1186 19.6407 38.0928 19.7612 38.0418C19.8817 37.9908 19.9905 37.9158 20.081 37.8213C20.271 37.6369 20.3808 37.3851 20.3865 37.1204V28.3154C20.3556 28.0698 20.2377 27.8434 20.054 27.6775C19.8713 27.5071 19.63 27.4138 19.3802 27.4169H19.1915V27.2642H23.8007C24.1561 27.2596 24.5107 27.2266 24.8609 27.1654C25.136 27.1296 25.4069 27.0664 25.6695 26.9767V28.9623H25.5167V28.6748C25.5186 28.555 25.4965 28.4361 25.4518 28.325C25.407 28.2139 25.3405 28.1129 25.2562 28.0279C25.094 27.8575 24.8714 27.7575 24.6362 27.7494H21.4107V32.6101H24.0253C24.2281 32.6035 24.4208 32.52 24.5644 32.3765C24.6355 32.3026 24.6912 32.2153 24.7282 32.1197C24.7652 32.024 24.7828 31.922 24.78 31.8195V31.6038H24.9417V34.0926H24.78V33.85C24.7834 33.7522 24.7669 33.6548 24.7314 33.5636C24.6958 33.4725 24.6421 33.3895 24.5733 33.3199C24.434 33.1745 24.2444 33.0877 24.0432 33.0773H21.3478V37.7853H23.594C24.236 37.8317 24.8734 37.6469 25.391 37.2642C25.8686 36.8391 26.2329 36.3018 26.4512 35.7009H26.6129L25.7144 38.2435H19.1735V38.0908L19.3802 38.1177ZM28.2658 36.7791C28.2389 37.06 28.2389 37.3428 28.2658 37.6237C28.6067 37.9532 29.0332 38.1804 29.4967 38.2796C29.9728 38.4177 30.4656 38.4902 30.9613 38.4952C31.355 38.5154 31.7486 38.4531 32.1168 38.3123C32.485 38.1715 32.8198 37.9553 33.0996 37.6776C33.3688 37.407 33.5795 37.0839 33.7186 36.7284C33.8577 36.3729 33.9223 35.9926 33.9082 35.6111C33.921 35.2464 33.8545 34.8832 33.7134 34.5466C33.5722 34.21 33.3598 33.908 33.0906 33.6614L29.9909 30.7953C29.7913 30.6246 29.6316 30.4123 29.523 30.1733C29.4143 29.9342 29.3593 29.6742 29.362 29.4117C29.3471 29.1609 29.385 28.9098 29.4732 28.6745C29.5615 28.4393 29.698 28.2252 29.8741 28.046C30.0505 27.8727 30.2599 27.7365 30.4898 27.6454C30.7197 27.5544 30.9656 27.5103 31.2128 27.5159C31.6924 27.4942 32.1629 27.6511 32.5336 27.9561C32.7001 28.1023 32.8317 28.2839 32.9187 28.4875C33.0058 28.6912 33.0461 28.9118 33.0367 29.1331H33.1805V27.2014H32.5695C32.1242 27.1002 31.6695 27.046 31.2128 27.0397C30.8508 27.0352 30.4916 27.1037 30.1566 27.2411C29.8216 27.3785 29.5178 27.5819 29.2631 27.8393C28.7739 28.3516 28.5061 29.0359 28.5174 29.7441C28.515 30.1051 28.5909 30.4623 28.7398 30.7911C28.8887 31.1199 29.1071 31.4126 29.3799 31.6489L32.3988 34.4521C32.5995 34.6383 32.7578 34.8654 32.8632 35.118C32.9686 35.3707 33.0186 35.643 33.0098 35.9166C33.0204 36.1979 32.9706 36.4782 32.8637 36.7386C32.7567 36.999 32.5951 37.2334 32.3898 37.426C31.9467 37.8296 31.3625 38.0426 30.7636 38.019C30.4766 38.0301 30.1906 37.9789 29.9254 37.8687C29.6601 37.7586 29.4219 37.5922 29.2272 37.3811C28.8307 36.9486 28.6209 36.3771 28.6432 35.7908C28.6343 35.6742 28.6343 35.557 28.6432 35.4404H28.4994C28.3481 35.8707 28.2691 36.3231 28.2658 36.7791ZM44.0432 28.6569C44.0439 28.5365 44.0204 28.4172 43.9741 28.306C43.9278 28.1949 43.8597 28.0942 43.7737 28.01C43.6084 27.8361 43.384 27.7304 43.1447 27.7135H40.1978V37.1384C40.2058 37.4 40.3153 37.6481 40.5032 37.8303C40.5954 37.9219 40.7048 37.9945 40.825 38.0438C40.9453 38.0932 41.0741 38.1183 41.2041 38.1178H41.4107V38.2705H37.9246V38.1178H38.1223C38.2526 38.1203 38.382 38.0961 38.5025 38.0467C38.623 37.9972 38.7322 37.9236 38.8231 37.8303C38.9189 37.7461 38.9957 37.6424 39.0484 37.5262C39.1011 37.41 39.1284 37.284 39.1286 37.1564V27.7135H36.1456C35.9027 27.7264 35.6742 27.8326 35.5077 28.01C35.4234 28.095 35.3569 28.196 35.3121 28.3071C35.2674 28.4182 35.2453 28.5371 35.2472 28.6569V28.9264H35.0854V26.9587C35.3543 27.0479 35.6311 27.1111 35.912 27.1474C36.2652 27.2091 36.6228 27.2421 36.9812 27.2463H42.2912C42.7225 27.2556 43.1535 27.2165 43.576 27.1294C43.7866 27.0878 43.9938 27.0307 44.196 26.9587V28.9444H44.0432V28.6569ZM46.0235 38.0418C45.903 38.0928 45.7734 38.1186 45.6426 38.1178H45.4359V38.2705H48.886V38.1178H48.6794C48.5472 38.1188 48.4162 38.0931 48.2942 38.0421C48.1722 37.9912 48.0618 37.916 47.9696 37.8213C47.8719 37.7333 47.7947 37.6249 47.7435 37.5038C47.6923 37.3827 47.6682 37.2519 47.6731 37.1205V28.3963C47.6741 28.2662 47.7017 28.1377 47.7542 28.0188C47.8068 27.8998 47.8831 27.7928 47.9786 27.7045C48.0708 27.6128 48.1801 27.5402 48.3004 27.4909C48.4206 27.4416 48.5494 27.4164 48.6794 27.417H48.886V27.2642H45.4359V27.417H45.6426C45.7725 27.4164 45.9013 27.4416 46.0216 27.4909C46.1419 27.5402 46.2512 27.6128 46.3434 27.7045C46.4388 27.7928 46.5152 27.8998 46.5677 28.0188C46.6203 28.1377 46.6479 28.2662 46.6488 28.3963V37.1205C46.648 37.2519 46.6205 37.3818 46.568 37.5022C46.5155 37.6227 46.4391 37.7312 46.3434 37.8213C46.2529 37.9158 46.1441 37.9908 46.0235 38.0418ZM52.0036 36.9048C51.0002 35.7582 50.4471 34.2864 50.4471 32.7628C50.4471 31.2392 51.0002 29.7674 52.0036 28.6208C52.5394 28.0926 53.1778 27.6798 53.8794 27.4078C54.5809 27.1358 55.3308 27.0105 56.0826 27.0395C57.4356 27.0134 58.7665 27.3852 59.9101 28.1087L60.2246 30.31H60.0808C59.8896 29.4672 59.3936 28.7248 58.6882 28.2255C57.9166 27.7177 57.0057 27.4633 56.0826 27.4978C55.4702 27.4762 54.8609 27.5953 54.3017 27.8461C53.7426 28.0969 53.2483 28.4726 52.8571 28.9443C51.9924 30.0166 51.5512 31.3689 51.6172 32.7448C51.5359 34.1392 51.9781 35.5138 52.8571 36.5993C53.2505 37.069 53.7449 37.4439 54.3034 37.6959C54.8619 37.948 55.4701 38.0706 56.0826 38.0548C56.7494 38.0589 57.4109 37.937 58.0323 37.6954C58.6275 37.4652 59.1733 37.1237 59.6406 36.6891V33.9039C59.6463 33.8058 59.6308 33.7077 59.5951 33.6163C59.5594 33.5248 59.5045 33.4421 59.4339 33.3738C59.2638 33.2454 59.0537 33.1818 58.8409 33.1941H58.5894V33.0054H61.6711V33.1581H61.4375C61.2218 33.1436 61.0081 33.2074 60.8356 33.3378C60.7662 33.4063 60.7132 33.4895 60.6806 33.5813C60.6479 33.6731 60.6364 33.7711 60.6469 33.8679V36.4645C60.3697 36.8285 60.0431 37.1521 59.6765 37.4259C59.2104 37.7488 58.6986 38.0001 58.1581 38.1716C57.4886 38.3923 56.7875 38.5015 56.0826 38.4951C55.3306 38.5187 54.5816 38.39 53.8806 38.1167C53.1796 37.8434 52.5411 37.4312 52.0036 36.9048ZM63.1843 38.0418C63.0638 38.0928 62.9342 38.1186 62.8033 38.1177L62.5967 38.0908V38.2435H69.1016L70.0001 35.7009H69.8474C69.6611 36.3013 69.3311 36.8472 68.886 37.2912C68.3684 37.6738 67.731 37.8587 67.089 37.8123H64.8429V33.1043H67.5383C67.7399 33.1128 67.9301 33.1999 68.0684 33.3469C68.1383 33.4161 68.1934 33.4987 68.2305 33.5898C68.2675 33.6809 68.2858 33.7786 68.284 33.877V34.1195H68.4368V31.6308H68.284V31.8464C68.2865 32.0507 68.2089 32.2478 68.0678 32.3956C67.9268 32.5434 67.7335 32.63 67.5293 32.6371H64.8339V27.7763H68.0504C68.2887 27.7763 68.5172 27.871 68.6857 28.0395C68.8542 28.208 68.9489 28.4365 68.9489 28.6748V28.9623H69.1465V26.9767C68.8805 27.0649 68.6068 27.1281 68.3289 27.1654C67.9788 27.227 67.6242 27.26 67.2687 27.2642H62.6596V27.4169H62.8033C63.0531 27.4138 63.2945 27.5071 63.4772 27.6775C63.6642 27.8408 63.7829 28.0686 63.8096 28.3154V37.1204C63.8088 37.2519 63.7813 37.3817 63.7288 37.5022C63.6763 37.6227 63.5999 37.7312 63.5041 37.8213C63.4137 37.9158 63.3048 37.9908 63.1843 38.0418ZM21.9316 48.6569H22.1023V48.7558H19.8291V48.6659H19.9819C20.0385 48.6636 20.0942 48.6502 20.1456 48.6263C20.197 48.6025 20.2433 48.5687 20.2817 48.527C20.3201 48.4853 20.3498 48.4364 20.3693 48.3831C20.3888 48.3299 20.3976 48.2733 20.3952 48.2167L19.919 42.9337L17.7357 47.8303C17.5686 48.1722 17.4477 48.5348 17.3763 48.9085H17.2775L14.582 43.0864L14.1418 48.2167C14.1341 48.2718 14.1391 48.3279 14.1562 48.3808C14.1733 48.4337 14.2022 48.482 14.2406 48.5222C14.2779 48.5648 14.3233 48.5995 14.3743 48.6242C14.4252 48.6488 14.4806 48.6631 14.5371 48.6659H14.7078V48.7558H12.6503V48.6569H12.821C13.0076 48.6593 13.189 48.5957 13.3332 48.4772C13.4761 48.3537 13.5662 48.1801 13.5847 47.9921L14.3754 41.2715H14.4742L17.4033 47.5608L20.2694 41.2715H20.3592L21.1679 47.9921C21.1768 48.1191 21.2211 48.2411 21.2957 48.3443C21.3703 48.4475 21.4723 48.5278 21.5901 48.5761C21.6954 48.6312 21.8128 48.659 21.9316 48.6569ZM26.6037 41.2719C25.5972 41.2719 24.6268 41.6465 23.8813 42.3226C23.5285 42.6888 23.2541 43.123 23.0749 43.5988C22.8957 44.0747 22.8154 44.582 22.8391 45.0899C22.8061 45.8554 23.0075 46.6127 23.4164 47.2606C23.8252 47.9086 24.422 48.4163 25.1271 48.7161C25.8321 49.0159 26.6119 49.0935 27.3622 48.9384C28.1125 48.7833 28.7976 48.403 29.326 47.8482C30.0024 47.0869 30.376 46.1039 30.376 45.0854C30.376 44.067 30.0024 43.084 29.326 42.3226C28.5806 41.6465 27.6101 41.2719 26.6037 41.2719ZM25.425 48.3416C25.0547 48.1739 24.7245 47.9291 24.4563 47.6236V47.5967C23.9247 46.8571 23.6387 45.9693 23.6387 45.0585C23.6387 44.1477 23.9247 43.2599 24.4563 42.5203C24.7183 42.2082 25.0476 41.9595 25.4196 41.793C25.7915 41.6264 26.1963 41.5464 26.6037 41.5589C27.1526 41.5489 27.6927 41.6987 28.158 41.9902C28.6269 42.3115 28.9897 42.765 29.2002 43.293C29.4468 43.8598 29.5723 44.4718 29.5686 45.0899C29.6138 46.0059 29.3231 46.9068 28.751 47.6236C28.4829 47.9291 28.1526 48.1739 27.7823 48.3416C27.412 48.5093 27.0102 48.5961 26.6037 48.5961C26.1972 48.5961 25.7953 48.5093 25.425 48.3416ZM36.8015 42.3495C36.8023 42.2692 36.7868 42.1896 36.7559 42.1154C36.725 42.0413 36.6794 41.9742 36.6218 41.9182C36.5155 41.8005 36.3669 41.7294 36.2085 41.7206H34.2139V48.0099C34.2158 48.0975 34.2351 48.184 34.2705 48.2641C34.306 48.3443 34.357 48.4167 34.4205 48.4771C34.4798 48.5384 34.5511 48.5868 34.63 48.6192C34.7088 48.6517 34.7935 48.6675 34.8788 48.6658H35.0225V48.7646H32.7224V48.6658H32.8572C33.0313 48.6659 33.1988 48.5986 33.3244 48.478C33.45 48.3574 33.5241 48.1929 33.5311 48.0189V41.7296H31.5364C31.4564 41.7328 31.3779 41.7519 31.3054 41.7859C31.2329 41.8198 31.1679 41.8679 31.1142 41.9272C31.0578 41.9836 31.0135 42.051 30.9842 42.1252C30.9548 42.1994 30.9409 42.2788 30.9434 42.3585V42.5382H30.8356V41.2174C31.0139 41.2766 31.1974 41.3187 31.3837 41.3432C31.618 41.3849 31.8555 41.4059 32.0935 41.4061H35.6335C35.9351 41.4144 36.2367 41.3873 36.5319 41.3253C36.6719 41.2984 36.81 41.2624 36.9452 41.2174V42.5382H36.8374L36.8015 42.3495ZM39.8642 41.5184C39.4006 41.6991 38.979 41.9728 38.6252 42.3226C37.9488 43.084 37.5752 44.067 37.5752 45.0854C37.5752 46.1038 37.9488 47.0868 38.6252 47.8482C38.9785 48.1992 39.3999 48.4743 39.8634 48.6566C40.3269 48.8389 40.8228 48.9246 41.3206 48.9084C41.8181 48.9225 42.3134 48.8358 42.7766 48.6536C43.2398 48.4714 43.6614 48.1975 44.016 47.8482C44.6924 47.0868 45.0659 46.1038 45.0659 45.0854C45.0659 44.067 44.6924 43.084 44.016 42.3226C43.6606 41.975 43.2387 41.7027 42.7755 41.522C42.3124 41.3414 41.8175 41.2562 41.3206 41.2714C40.8233 41.2535 40.3277 41.3376 39.8642 41.5184ZM40.1689 48.3416C39.7986 48.1739 39.4683 47.9291 39.2002 47.6236V47.6685C38.6686 46.929 38.3826 46.0411 38.3826 45.1303C38.3826 44.2195 38.6686 43.3317 39.2002 42.5922C39.4612 42.2812 39.7891 42.0333 40.1594 41.8668C40.5296 41.7003 40.9327 41.6196 41.3385 41.6308C41.8897 41.6135 42.4332 41.763 42.898 42.0595C43.3629 42.3561 43.7274 42.7859 43.9441 43.293C44.1907 43.8598 44.3162 44.4718 44.3125 45.0899C44.3527 46.0052 44.0625 46.9045 43.4949 47.6236C43.2267 47.9291 42.8965 48.1739 42.5262 48.3416C42.1559 48.5093 41.754 48.596 41.3475 48.596C40.941 48.596 40.5392 48.5093 40.1689 48.3416ZM48.2122 41.7387H47.5383V48.028C47.5365 48.1154 47.5531 48.2022 47.5872 48.2828C47.6213 48.3633 47.672 48.4357 47.736 48.4952C47.7979 48.5586 47.872 48.6088 47.9539 48.6428C48.0357 48.6768 48.1236 48.6938 48.2122 48.6929H48.338V48.7917H46.0469V48.6929H46.1906C46.2759 48.6946 46.3606 48.6788 46.4394 48.6463C46.5183 48.6138 46.5896 48.5655 46.6488 48.5042C46.7124 48.4438 46.7634 48.3714 46.7988 48.2912C46.8343 48.211 46.8536 48.1246 46.8555 48.037V42.1789C46.8539 42.0926 46.8347 42.0074 46.7992 41.9286C46.7637 41.8499 46.7125 41.7791 46.6488 41.7207C46.591 41.6569 46.5202 41.6063 46.4412 41.5722C46.3621 41.5381 46.2767 41.5213 46.1906 41.5231H46.0469V41.4152H48.8771C49.1498 41.4001 49.4228 41.4391 49.6804 41.5301C49.9379 41.6211 50.1749 41.7622 50.3775 41.9453C50.5612 42.1224 50.7051 42.3366 50.7996 42.5736C50.8941 42.8107 50.9371 43.0651 50.9256 43.32C50.9386 43.8531 50.7529 44.3719 50.4045 44.7755C50.2566 44.9686 50.0662 45.125 49.848 45.2326C49.6299 45.3401 49.3898 45.3958 49.1466 45.3955C49.2844 45.4703 49.4089 45.5675 49.515 45.683C49.6535 45.8209 49.7825 45.968 49.9013 46.1232C50.5033 47.0217 50.8896 47.5159 51.0693 47.7135L51.4647 48.1268C51.5427 48.2053 51.6268 48.2774 51.7162 48.3425C51.7999 48.4061 51.8903 48.4604 51.9858 48.5042C52.1871 48.6034 52.4083 48.6556 52.6327 48.6569V48.7558H52.0577C51.7712 48.7577 51.4872 48.7027 51.2221 48.594C51.0101 48.5169 50.8126 48.4045 50.6381 48.2616C50.5204 48.1547 50.4093 48.0407 50.3056 47.9202C50.2098 47.8124 49.9492 47.453 49.524 46.842L49.3941 46.6553L49.394 46.6552C49.0435 46.1512 48.8425 45.8622 48.7782 45.7818C48.7064 45.692 48.6345 45.6111 48.5536 45.5303C48.4755 45.4257 48.3756 45.3393 48.2608 45.2772C48.146 45.2152 48.019 45.1789 47.8887 45.1709V45.063H48.1044H48.4368C48.7948 45.1034 49.1557 45.0166 49.4562 44.8179C49.7568 44.6192 49.9779 44.3211 50.081 43.9759C50.1224 43.8482 50.1436 43.7148 50.1439 43.5806V43.347C50.1517 42.9404 50.0254 42.5425 49.7845 42.2149C49.676 42.079 49.5397 41.9678 49.3848 41.8888C49.2298 41.8097 49.0598 41.7647 48.886 41.7567L48.2122 41.7387ZM52.9471 47.7584C52.9331 47.9469 52.9331 48.1361 52.9471 48.3245C53.1573 48.5329 53.417 48.6844 53.7019 48.7647C54.0208 48.8545 54.3499 48.9029 54.6812 48.9085C54.9428 48.9196 55.2039 48.8767 55.4481 48.7824C55.6924 48.6881 55.9145 48.5444 56.1008 48.3604C56.2797 48.1802 56.4199 47.9653 56.5126 47.7289C56.6053 47.4925 56.6486 47.2396 56.6399 46.9858C56.6529 46.7411 56.6131 46.4965 56.5231 46.2686C56.4332 46.0407 56.2953 45.8349 56.1188 45.665L54.0523 43.7513C53.922 43.6401 53.817 43.5025 53.7442 43.3476C53.6714 43.1926 53.6324 43.024 53.63 42.8528C53.6228 42.6861 53.6511 42.5198 53.7131 42.3649C53.775 42.21 53.8692 42.07 53.9894 41.9543C54.1065 41.836 54.2466 41.743 54.4012 41.6811C54.5558 41.6193 54.7214 41.59 54.8878 41.5949C55.2139 41.5777 55.5346 41.6835 55.7863 41.8914C55.8974 41.988 55.985 42.1085 56.0426 42.2439C56.1002 42.3794 56.1262 42.5261 56.1188 42.6731H56.2176V41.3883H55.8043C55.5095 41.3206 55.2083 41.2845 54.9058 41.2805C54.4292 41.2805 53.9722 41.4698 53.6352 41.8068C53.2982 42.1438 53.1089 42.6008 53.1089 43.0774C53.107 43.3168 53.1565 43.5538 53.2542 43.7724C53.3519 43.9909 53.4953 44.186 53.6749 44.3443L55.7144 46.2041C55.8481 46.3288 55.9533 46.4808 56.0231 46.6498C56.0928 46.8188 56.1255 47.0007 56.1188 47.1834C56.1246 47.3703 56.0899 47.5562 56.017 47.7284C55.9441 47.9006 55.8347 48.0549 55.6965 48.1807C55.5509 48.3165 55.3799 48.4221 55.1933 48.4915C55.0067 48.5609 54.8082 48.5927 54.6093 48.585C54.4175 48.5919 54.2265 48.5569 54.0496 48.4824C53.8727 48.4079 53.7142 48.2958 53.5851 48.1538C53.3232 47.8641 53.1846 47.4838 53.1987 47.0936C53.1942 47.0158 53.1942 46.9378 53.1987 46.86H53.0999C53.0033 47.1499 52.9517 47.4529 52.9471 47.7584Z" fill="white"/>
</svg>
