<svg width="24" height="24" viewBox="0 0 24 24" fill="none" xmlns="http://www.w3.org/2000/svg">
<path d="M7.263 0C5.33787 0.00370015 3.49265 0.770095 2.13137 2.13137C0.770095 3.49265 0.00370015 5.33787 0 7.263V16.737C0.00396347 18.662 0.770443 20.5071 2.13166 21.8683C3.49288 23.2296 5.33795 23.996 7.263 24H16.737C18.662 23.996 20.5071 23.2296 21.8683 21.8683C23.2296 20.5071 23.996 18.662 24 16.737V7.263C23.996 5.33795 23.2296 3.49288 21.8683 2.13166C20.5071 0.770443 18.662 0.00396347 16.737 0H7.263ZM7.263 1.895H16.737C17.4424 1.89329 18.1412 2.03096 18.7933 2.30012C19.4453 2.56928 20.0378 2.96462 20.5366 3.46343C21.0354 3.96223 21.4307 4.55468 21.6999 5.20673C21.969 5.85878 22.1067 6.55758 22.105 7.263V16.737C22.1067 17.4424 21.969 18.1412 21.6999 18.7933C21.4307 19.4453 21.0354 20.0378 20.5366 20.5366C20.0378 21.0354 19.4453 21.4307 18.7933 21.6999C18.1412 21.969 17.4424 22.1067 16.737 22.105H7.263C6.55758 22.1067 5.85878 21.969 5.20673 21.6999C4.55468 21.4307 3.96223 21.0354 3.46343 20.5366C2.96462 20.0378 2.56928 19.4453 2.30012 18.7933C2.03096 18.1412 1.89329 17.4424 1.895 16.737V7.263C1.89315 6.55755 2.03074 5.85868 2.29985 5.20657C2.56897 4.55446 2.9643 3.96196 3.46313 3.46313C3.96196 2.9643 4.55446 2.56897 5.20657 2.29985C5.85868 2.03074 6.55755 1.89315 7.263 1.895ZM18.316 4.421C18.0662 4.421 17.822 4.49507 17.6143 4.63385C17.4066 4.77263 17.2447 4.96989 17.1491 5.20067C17.0535 5.43145 17.0285 5.6854 17.0773 5.9304C17.126 6.1754 17.2463 6.40044 17.4229 6.57708C17.5996 6.75371 17.8246 6.874 18.0696 6.92273C18.3146 6.97146 18.5685 6.94645 18.7993 6.85086C19.0301 6.75527 19.2274 6.59338 19.3661 6.38568C19.5049 6.17799 19.579 5.9338 19.579 5.684C19.579 5.34903 19.4459 5.02778 19.2091 4.79092C18.9722 4.55407 18.651 4.421 18.316 4.421ZM12 5.684C10.7508 5.684 9.52968 6.05443 8.49102 6.74844C7.45236 7.44245 6.64282 8.42887 6.16478 9.58297C5.68673 10.7371 5.56166 12.007 5.80536 13.2322C6.04906 14.4574 6.65061 15.5828 7.53391 16.4661C8.41722 17.3494 9.54263 17.9509 10.7678 18.1946C11.993 18.4383 13.2629 18.3133 14.417 17.8352C15.5711 17.3572 16.5576 16.5476 17.2516 15.509C17.9456 14.4703 18.316 13.2492 18.316 12C18.3123 10.326 17.6457 8.72168 16.462 7.538C15.2783 6.35432 13.674 5.6877 12 5.684ZM12 7.579C12.8744 7.579 13.7291 7.83829 14.4562 8.32407C15.1832 8.80986 15.7499 9.50033 16.0845 10.3082C16.4191 11.116 16.5066 12.0049 16.3361 12.8625C16.1655 13.7201 15.7444 14.5078 15.1261 15.1261C14.5078 15.7444 13.7201 16.1655 12.8625 16.3361C12.0049 16.5066 11.116 16.4191 10.3082 16.0845C9.50033 15.7499 8.80986 15.1832 8.32407 14.4562C7.83829 13.7291 7.579 12.8744 7.579 12C7.57715 11.4189 7.69024 10.8432 7.91176 10.306C8.13328 9.76876 8.45886 9.28065 8.86976 8.86976C9.28065 8.45886 9.76876 8.13328 10.306 7.91176C10.8432 7.69024 11.4189 7.57715 12 7.579Z" fill="white"/>
</svg>
