<svg width="908" height="47" viewBox="0 0 908 47" fill="none" xmlns="http://www.w3.org/2000/svg">
<path d="M336.47 40.28C335.56 39.24 334.36 37.8 332.86 35.94C331.36 34.08 330.63 33.15 330.67 33.15C328.77 30.45 327.14 28.8 325.79 28.21C328.66 27.92 331.03 26.77 332.89 24.79C334.75 22.8 335.68 20.33 335.68 17.37C335.68 14.41 334.53 12.03 332.23 10.21C329.93 8.39 326.79 7.48 322.82 7.48H306.91V8.11H307.8C308.77 8.11 309.61 8.43 310.3 9.06C311 9.69 311.35 10.48 311.35 11.41V41.52C311.35 42.45 311 43.24 310.3 43.9C309.6 44.56 308.77 44.88 307.8 44.88H306.91V45.51H319.9L319.84 44.88H319.02C318.34 44.88 317.73 44.73 317.18 44.44C316.04 43.77 315.45 42.77 315.41 41.46V9.44H318.77C320.25 9.44 321.56 9.46 322.7 9.5C325.28 9.63 327.33 10.39 328.85 11.78C330.37 13.18 331.13 15.16 331.13 17.74C331.13 19.77 330.6 21.63 329.55 23.32C329.04 24.12 328.09 24.88 326.7 25.6C325.69 26.11 322.71 26.36 317.76 26.36V27C319.75 27 321.88 28.42 324.16 31.25C324.29 31.42 325.29 32.82 327.17 35.46C329.05 38.1 330.12 39.59 330.37 39.93C331.55 41.37 332.86 42.57 334.3 43.54C336.2 44.85 338.82 45.5 342.16 45.5H344.12V44.87C342.09 44.87 340.3 44.13 338.73 42.65C338.13 42.11 337.38 41.32 336.47 40.28ZM278.83 1.14H257.34L257.4 1.77H258.16C259.22 1.77 260.16 2.12 260.98 2.82C261.8 3.52 262.22 4.37 262.22 5.39V40.88C262.18 41.98 261.77 42.92 260.98 43.7C260.2 44.48 259.26 44.87 258.16 44.87H257.34V45.5H278.83C285.59 45.5 291.07 43.46 295.28 39.38C299.48 35.3 301.59 29.95 301.59 23.31C301.59 16.68 299.49 11.32 295.28 7.24C291.07 3.18 285.59 1.14 278.83 1.14ZM294.58 33.94C293.08 37 290.97 39.38 288.24 41.07C285.51 42.76 282.38 43.6 278.83 43.6H266.34V3.04H278.83C284.2 3.04 288.54 4.9 291.86 8.62C295.18 12.34 296.84 17.24 296.84 23.33C296.83 27.34 296.08 30.88 294.58 33.94ZM360.15 44.88C359.01 44.88 358.02 44.55 357.17 43.9C356.32 43.24 355.88 42.45 355.84 41.52V11.41C355.92 10.48 356.38 9.7 357.2 9.06C358.02 8.43 359.01 8.11 360.15 8.11H360.97V7.48H346.64V8.11H347.46C348.64 8.11 349.66 8.45 350.5 9.12C351.34 9.8 351.77 10.6 351.77 11.53V41.45C351.77 42.38 351.35 43.18 350.5 43.86C349.65 44.54 348.66 44.87 347.52 44.87H346.63V45.5H361.02L360.96 44.87H360.15V44.88ZM394.82 8.11H395.26C396.1 8.11 396.74 8.39 397.16 8.97C397.58 9.54 397.79 10.07 397.79 10.55C397.79 11.04 397.68 11.55 397.47 12.1L385.81 39.61L374.46 11.97C374.33 11.46 374.27 10.98 374.27 10.51C374.27 10.05 374.47 9.53 374.87 8.96C375.27 8.39 375.87 8.1 376.68 8.1H377.19V7.48H364.2V8.11H364.71C366.74 8.11 368.36 9.36 369.59 11.85L385.25 46.39H385.82C385.86 45.8 386.24 44.62 386.96 42.84C387.34 41.91 392.14 31.56 401.35 11.78C401.98 10.55 402.74 9.64 403.63 9.02C404.52 8.41 405.43 8.1 406.36 8.1H406.87V7.48H394.83V8.11H394.82ZM423.47 44.88C422.33 44.88 421.34 44.55 420.49 43.9C419.64 43.24 419.2 42.45 419.16 41.52V11.41C419.24 10.48 419.7 9.7 420.52 9.06C421.34 8.43 422.33 8.11 423.47 8.11H424.29V7.48H409.96V8.11H410.78C411.96 8.11 412.98 8.45 413.82 9.12C414.66 9.8 415.09 10.6 415.09 11.53V41.45C415.09 42.38 414.67 43.18 413.82 43.86C412.97 44.54 411.98 44.87 410.84 44.87H409.95V45.5H424.34L424.28 44.87H423.47V44.88ZM112.85 44.24C111.69 43.82 110.64 42.99 109.71 41.77L98.37 25.54L108.57 11.34C109.29 10.41 110.19 9.64 111.26 9.03C112.34 8.42 113.47 8.11 114.65 8.11H115.54V7.48H101.47V8.11H102.23C103.07 8.11 103.7 8.39 104.1 8.97C104.5 9.54 104.7 10.02 104.7 10.4C104.7 10.78 104.57 11.14 104.32 11.48L96.65 23.02L88.6 11.48C88.35 11.1 88.22 10.73 88.22 10.37C88.22 10.01 88.42 9.55 88.82 8.98C89.22 8.41 89.84 8.12 90.69 8.12H91.45V7.48H76.55V8.11H77.37C78.55 8.11 79.7 8.42 80.82 9.03C81.94 9.64 82.82 10.39 83.45 11.28L94.16 26.68L82.4 41.77C80.67 43.84 78.66 44.88 76.38 44.88H75.56V45.51H89.38V44.88H88.62C87.73 44.88 87.09 44.59 86.69 44.02C86.29 43.45 86.09 42.97 86.09 42.59C86.09 42.21 86.24 41.83 86.53 41.45L95.78 28.96L104.53 41.51C104.74 41.89 104.85 42.26 104.85 42.62C104.85 42.98 104.65 43.44 104.25 44.02C103.85 44.59 103.23 44.88 102.38 44.88H101.62V45.51H116.64V44.88H115.82C115 44.88 114.02 44.67 112.85 44.24ZM63.07 8.11H64.02C64.86 8.11 65.57 8.36 66.14 8.87C66.71 9.38 67.02 10.03 67.06 10.83V32.13C67.06 36.02 65.91 39.08 63.61 41.32C61.31 43.56 58.24 44.68 54.42 44.68C50.6 44.68 47.64 43.5 45.55 41.13C43.46 38.76 42.41 35.53 42.41 31.43V10.83C42.41 10.07 42.71 9.43 43.3 8.9C43.89 8.37 44.61 8.11 45.46 8.11H46.41V7.48H34.35V8.11H35.3C36.14 8.11 36.86 8.37 37.46 8.9C38.05 9.43 38.35 10.07 38.35 10.83V32.2C38.35 36.6 39.77 40.06 42.6 42.6C45.43 45.14 49.3 46.4 54.2 46.4C59.1 46.4 62.96 45.12 65.77 42.57C68.58 40.01 69.99 36.54 69.99 32.14V10.78C70.03 10.27 70.18 9.83 70.43 9.45C71.02 8.56 71.89 8.12 73.03 8.12H73.98V7.48H63.08V8.11H63.07ZM25.23 41.45C23.58 42.84 21.19 43.54 18.07 43.54H9V5.77C9 5.05 9.19 4.37 9.57 3.74C10.37 2.43 11.53 1.77 13.06 1.77H13.88V1.14H0V1.77H0.82C1.92 1.77 2.86 2.16 3.64 2.94C4.42 3.72 4.83 4.66 4.88 5.76V40.87C4.84 41.97 4.43 42.91 3.64 43.69C2.86 44.47 1.92 44.86 0.82 44.86H0V45.49H26.3L29.98 35.22H29.35C28.25 37.99 26.88 40.06 25.23 41.45ZM224.76 8.11H225.52C226.36 8.11 226.97 8.36 227.33 8.87C227.69 9.38 227.87 9.81 227.87 10.17C227.87 10.53 227.81 10.88 227.68 11.22L217.86 27.57L208.61 11.15C208.53 10.86 208.48 10.53 208.48 10.17C208.48 9.81 208.66 9.38 209.02 8.87C209.38 8.36 209.96 8.11 210.76 8.11H211.52V7.48H196.82V8.11H197.58C200.03 8.11 201.97 9.17 203.41 11.28L215.14 29.72V41.45C215.14 42.38 214.78 43.18 214.06 43.86C213.34 44.54 212.48 44.87 211.46 44.87H210.7V45.5H223.69V44.87H222.93C221.92 44.87 221.05 44.53 220.33 43.86C219.61 43.18 219.25 42.38 219.25 41.45V29.79L231.42 11.35C232.1 10.42 232.95 9.65 233.99 9.04C235.03 8.43 236.11 8.12 237.25 8.12H238.01V7.48H224.76V8.11ZM147.11 8.11H148.06C148.91 8.11 149.61 8.36 150.18 8.87C150.75 9.38 151.06 10.03 151.1 10.83V32.13C151.1 36.02 149.95 39.08 147.65 41.32C145.35 43.56 142.28 44.68 138.46 44.68C134.64 44.68 131.68 43.5 129.59 41.13C127.5 38.76 126.45 35.53 126.45 31.43V10.83C126.45 10.07 126.75 9.43 127.34 8.9C127.93 8.37 128.65 8.11 129.5 8.11H130.45V7.48H118.4V8.11H119.35C120.19 8.11 120.91 8.37 121.51 8.9C122.1 9.43 122.4 10.07 122.4 10.83V32.2C122.4 36.6 123.82 40.06 126.65 42.6C129.48 45.14 133.35 46.4 138.25 46.4C143.15 46.4 147.01 45.12 149.82 42.57C152.63 40.01 154.03 36.54 154.03 32.14V10.78C154.07 10.27 154.22 9.83 154.47 9.45C155.06 8.56 155.93 8.12 157.07 8.12H158.02V7.48H147.12V8.11H147.11ZM193.29 40.28C192.38 39.24 191.18 37.8 189.68 35.94C188.18 34.08 187.45 33.15 187.49 33.15C185.59 30.45 183.96 28.8 182.61 28.21C185.48 27.92 187.85 26.77 189.71 24.79C191.57 22.8 192.5 20.33 192.5 17.37C192.5 14.41 191.35 12.03 189.05 10.21C186.75 8.39 183.61 7.48 179.64 7.48H163.73V8.11H164.62C165.59 8.11 166.43 8.43 167.12 9.06C167.82 9.69 168.17 10.48 168.17 11.41V41.52C168.17 42.45 167.82 43.24 167.12 43.9C166.42 44.56 165.59 44.88 164.62 44.88H163.73V45.51H176.72L176.66 44.88H175.84C175.16 44.88 174.55 44.73 174 44.44C172.86 43.77 172.27 42.77 172.23 41.46V9.44H175.59C177.07 9.44 178.38 9.46 179.52 9.5C182.1 9.63 184.15 10.39 185.67 11.78C187.19 13.18 187.95 15.16 187.95 17.74C187.95 19.77 187.42 21.63 186.37 23.32C185.86 24.12 184.91 24.88 183.52 25.6C182.51 26.11 179.53 26.36 174.58 26.36V27C176.57 27 178.7 28.42 180.98 31.25C181.11 31.42 182.11 32.82 183.99 35.46C185.87 38.1 186.94 39.59 187.19 39.93C188.37 41.37 189.68 42.57 191.12 43.54C193.02 44.85 195.64 45.5 198.98 45.5H200.94V44.87C198.91 44.87 197.12 44.13 195.55 42.65C194.95 42.11 194.2 41.32 193.29 40.28ZM680.97 40.12C680.27 41.05 679.26 41.85 677.93 42.53C676.6 43.21 674.96 43.54 673.02 43.54H663.07V27.44H674.1C674.48 27.48 674.84 27.57 675.18 27.69C676.07 28.11 676.51 28.92 676.51 30.1V30.92H677.21V22.05H676.51V22.87C676.51 23.63 676.29 24.26 675.84 24.77C675.4 25.28 674.75 25.53 673.91 25.53H663.07V9.44H676.25C677.18 9.44 677.94 9.76 678.53 10.39C679.12 11.02 679.42 11.78 679.42 12.67V13.62L680.12 13.68V6.47C679.74 6.64 678.89 6.85 677.59 7.1C676.28 7.35 674.76 7.48 673.03 7.48H654.5V8.11H655.39C656.4 8.11 657.27 8.43 657.99 9.06C658.71 9.69 659.07 10.48 659.07 11.41V41.52C659.03 42.45 658.66 43.24 657.96 43.9C657.26 44.56 656.41 44.88 655.39 44.88H654.5V45.51H680.23L683.72 36.45H683.09C682.37 37.97 681.66 39.19 680.97 40.12ZM815.81 8.11H816.89C817.82 8.11 818.62 8.42 819.3 9.03C819.98 9.64 820.36 10.39 820.44 11.28V37.58L787.54 6.58L786.84 6.52L786.97 7.53C787.27 9.56 787.41 11.86 787.41 14.44V41.57C787.41 42.5 787.07 43.28 786.4 43.92C785.72 44.55 784.9 44.87 783.93 44.87H782.85V45.5H794.83V44.87H793.75C792.78 44.87 791.95 44.55 791.28 43.92C790.6 43.29 790.27 42.51 790.27 41.57V15.15L823.23 46.4H823.8L823.67 45.26C823.37 43.06 823.23 40.74 823.23 38.29V11.29C823.27 10.4 823.63 9.65 824.31 9.04C824.98 8.43 825.79 8.12 826.72 8.12H827.8V7.48H815.82V8.11H815.81ZM775.98 40.12C775.28 41.05 774.27 41.85 772.94 42.53C771.61 43.21 769.97 43.54 768.03 43.54H758.08V27.44H769.11C769.49 27.48 769.85 27.57 770.19 27.69C771.08 28.11 771.52 28.92 771.52 30.1V30.92H772.22V22.05H771.52V22.87C771.52 23.63 771.3 24.26 770.85 24.77C770.41 25.28 769.76 25.53 768.92 25.53H758.08V9.44H771.26C772.19 9.44 772.95 9.76 773.54 10.39C774.13 11.02 774.43 11.78 774.43 12.67V13.62L775.13 13.68V6.47C774.75 6.64 773.9 6.85 772.6 7.1C771.29 7.35 769.77 7.48 768.04 7.48H749.53V8.11H750.42C751.43 8.11 752.3 8.43 753.02 9.06C753.74 9.69 754.1 10.48 754.1 11.41V41.52C754.06 42.45 753.69 43.24 752.99 43.9C752.29 44.56 751.44 44.88 750.42 44.88H749.53V45.51H775.26L778.75 36.45H778.12C777.38 37.97 776.68 39.19 775.98 40.12ZM868.58 38.03C866.95 40.31 864.9 41.95 862.43 42.94C859.96 43.93 857.07 44.43 853.78 44.43C850.48 44.43 847.59 43.69 845.1 42.21C842.61 40.73 840.71 38.65 839.4 35.97C838.09 33.29 837.43 30.13 837.43 26.49C837.43 20.91 838.89 16.52 841.8 13.31C844.72 10.1 848.69 8.49 853.72 8.49C862.38 8.49 867.62 12.12 869.44 19.39H870.01L868.61 10.39C866.67 9.21 864.36 8.28 861.7 7.6C859.04 6.92 856.4 6.58 853.78 6.58C847.31 6.58 842.21 8.36 838.47 11.9C834.73 15.45 832.86 20.3 832.86 26.45C832.86 32.6 834.73 37.45 838.47 41C842.21 44.55 847.31 46.35 853.78 46.39C857.5 46.39 860.92 45.66 864.05 44.2C867.18 42.74 869.56 40.75 871.21 38.21L871.91 29.53H871.34C871.13 32.92 870.21 35.75 868.58 38.03ZM906.45 36.45C905.73 37.97 905.02 39.2 904.33 40.13C903.63 41.06 902.62 41.86 901.29 42.54C899.96 43.22 898.32 43.55 896.38 43.55H886.43V27.45H897.46C897.84 27.49 898.2 27.58 898.54 27.7C899.43 28.12 899.87 28.93 899.87 30.11V30.93H900.57V22.06H899.87V22.88C899.87 23.64 899.65 24.27 899.2 24.78C898.76 25.29 898.11 25.54 897.27 25.54H886.43V9.44H899.61C900.54 9.44 901.3 9.76 901.89 10.39C902.48 11.02 902.78 11.78 902.78 12.67V13.62L903.48 13.68V6.47C903.1 6.64 902.25 6.85 900.95 7.1C899.64 7.35 898.12 7.48 896.39 7.48H877.88V8.11H878.77C879.79 8.11 880.65 8.43 881.37 9.06C882.09 9.69 882.45 10.48 882.45 11.41V41.52C882.41 42.45 882.04 43.24 881.34 43.9C880.64 44.56 879.79 44.88 878.77 44.88H877.88V45.51H903.61L907.1 36.45H906.45ZM462.96 8.11H464.04C464.97 8.11 465.77 8.42 466.45 9.03C467.13 9.64 467.51 10.39 467.59 11.28V37.58L434.69 6.58L433.99 6.52L434.12 7.53C434.42 9.56 434.56 11.86 434.56 14.44V41.57C434.56 42.5 434.22 43.28 433.55 43.92C432.87 44.55 432.05 44.87 431.08 44.87H430V45.5H441.98V44.87H440.9C439.93 44.87 439.1 44.55 438.43 43.92C437.75 43.29 437.42 42.51 437.42 41.57V15.15L470.38 46.4H470.95L470.82 45.26C470.52 43.06 470.38 40.74 470.38 38.29V11.29C470.42 10.4 470.78 9.65 471.46 9.04C472.13 8.43 472.94 8.12 473.87 8.12H474.95V7.48H462.97V8.11H462.96ZM741.72 44.88C740.58 44.88 739.59 44.55 738.74 43.9C737.89 43.24 737.45 42.45 737.41 41.52V11.41C737.49 10.48 737.95 9.7 738.77 9.06C739.59 8.43 740.58 8.11 741.72 8.11H742.54V7.48H728.21V8.11H729.03C730.21 8.11 731.23 8.45 732.07 9.12C732.92 9.8 733.34 10.6 733.34 11.53V41.45C733.34 42.38 732.92 43.18 732.07 43.86C731.23 44.54 730.23 44.87 729.09 44.87H728.2V45.5H742.59L742.53 44.87H741.72V44.88ZM568.74 41.45C567.09 42.84 564.7 43.54 561.58 43.54H552.52V24.59H563.3C564.14 24.63 564.85 24.95 565.42 25.54C565.99 26.13 566.28 26.85 566.28 27.7V28.65H566.91V18.64H566.28V19.53C566.28 20.42 565.98 21.16 565.39 21.75C564.8 22.34 564.08 22.66 563.24 22.7H552.53V3.11H565.46C566.43 3.15 567.27 3.53 567.96 4.25C568.66 4.97 569.01 5.83 569.01 6.85V7.99H569.64V0C569.01 0.25 567.92 0.51 566.38 0.76C564.84 1.01 563.41 1.14 562.1 1.14H543.53L543.59 1.77H544.35C545.41 1.77 546.32 2.12 547.08 2.82C547.84 3.52 548.28 4.37 548.41 5.39V40.88C548.37 41.98 547.96 42.92 547.17 43.7C546.39 44.48 545.45 44.87 544.35 44.87H543.53V45.5H569.83L573.51 35.23H572.88C571.77 37.99 570.39 40.06 568.74 41.45ZM511 28.08H511.89C512.82 28.08 513.55 28.3 514.08 28.75C514.61 29.19 514.85 29.8 514.81 30.56L514.75 38.99C510.99 42.67 506.5 44.5 501.28 44.5C496.06 44.5 491.97 42.88 489.02 39.65C486.06 36.42 484.58 32.03 484.58 26.5C484.58 20.96 486.05 16.58 488.99 13.35C491.93 10.12 495.73 8.5 500.4 8.5C505.07 8.5 508.68 9.39 511.24 11.16C513.8 12.94 515.52 15.68 516.41 19.4H516.98L515.59 10.4C511.41 7.87 506.32 6.6 500.35 6.6C494.37 6.6 489.49 8.39 485.71 11.96C481.93 15.53 480.04 20.37 480.04 26.47C480.04 32.58 481.93 37.41 485.71 40.98C489.49 44.55 494.53 46.36 500.83 46.4C504.89 46.4 508.47 45.59 511.57 43.96C514.68 42.33 517.12 40.42 518.89 38.22V30.61C518.89 28.92 519.84 28.08 521.74 28.08H522.63V27.45H511V28.08ZM644.84 10.4C642.24 8.46 638.72 7.48 634.29 7.48H619.46V8.11H620.35C621.36 8.11 622.22 8.43 622.92 9.06C623.62 9.69 623.99 10.5 624.03 11.47V41.51C623.99 42.44 623.62 43.23 622.92 43.89C622.22 44.55 621.37 44.87 620.35 44.87H619.46V45.5H632.58V44.87H631.69C631.01 44.87 630.4 44.72 629.85 44.43C628.67 43.8 628.05 42.8 628.01 41.45V9.38H634.16C637.29 9.38 639.74 10.12 641.51 11.6C643.28 13.08 644.17 15.11 644.17 17.68C644.17 19.12 644.02 20.26 643.73 21.1C642.88 23.47 641.57 25.2 639.8 26.3C639.04 26.81 638.19 27.18 637.26 27.41C636.33 27.64 635.61 27.78 635.11 27.82C634.6 27.86 633.95 27.88 633.14 27.88C632.34 27.88 631.45 27.75 630.48 27.5V28.13C632.64 29.15 634.83 29.65 637.07 29.65C641.59 29.65 644.93 27.92 647.08 24.45C648.18 22.67 648.73 20.61 648.73 18.24C648.73 14.96 647.43 12.34 644.84 10.4ZM718.04 40.28C717.13 39.24 715.93 37.8 714.43 35.94C712.93 34.08 712.2 33.15 712.24 33.15C710.34 30.45 708.71 28.8 707.36 28.21C710.23 27.92 712.6 26.77 714.46 24.79C716.32 22.8 717.25 20.33 717.25 17.37C717.25 14.41 716.1 12.03 713.8 10.21C711.5 8.39 708.36 7.48 704.39 7.48H688.48V8.11H689.37C690.34 8.11 691.18 8.43 691.87 9.06C692.57 9.69 692.92 10.48 692.92 11.41V41.52C692.92 42.45 692.57 43.24 691.87 43.9C691.17 44.56 690.34 44.88 689.37 44.88H688.48V45.51H701.47L701.41 44.88H700.59C699.91 44.88 699.3 44.73 698.75 44.44C697.61 43.77 697.02 42.77 696.98 41.46V9.44H700.34C701.82 9.44 703.13 9.46 704.27 9.5C706.85 9.63 708.9 10.39 710.42 11.78C711.94 13.18 712.7 15.16 712.7 17.74C712.7 19.77 712.17 21.63 711.12 23.32C710.61 24.12 709.66 24.88 708.27 25.6C707.26 26.11 704.28 26.36 699.33 26.36V27C701.32 27 703.45 28.42 705.73 31.25C705.86 31.42 706.86 32.82 708.74 35.46C710.62 38.1 711.69 39.59 711.94 39.93C713.12 41.37 714.43 42.57 715.87 43.54C717.77 44.85 720.39 45.5 723.73 45.5H725.7V44.87C723.67 44.87 721.88 44.13 720.31 42.65C719.7 42.11 718.95 41.32 718.04 40.28ZM612.95 44.24C611.79 43.82 610.74 42.99 609.81 41.77L598.46 25.54L608.67 11.34C609.39 10.41 610.29 9.64 611.36 9.03C612.44 8.42 613.57 8.11 614.75 8.11H615.64V7.48H601.57V8.11H602.33C603.18 8.11 603.8 8.39 604.2 8.97C604.6 9.54 604.8 10.02 604.8 10.4C604.8 10.78 604.67 11.14 604.42 11.48L596.75 23.02L588.7 11.48C588.45 11.1 588.32 10.73 588.32 10.37C588.32 10.01 588.52 9.55 588.92 8.98C589.32 8.41 589.94 8.12 590.79 8.12H591.55V7.48H576.65V8.11H577.47C578.65 8.11 579.8 8.42 580.92 9.03C582.04 9.64 582.92 10.39 583.55 11.28L594.26 26.68L582.5 41.77C580.77 43.84 578.76 44.88 576.48 44.88H575.66V45.51H589.48V44.88H588.72C587.83 44.88 587.19 44.59 586.79 44.02C586.39 43.45 586.19 42.97 586.19 42.59C586.19 42.21 586.34 41.83 586.63 41.45L595.88 28.96L604.63 41.51C604.84 41.89 604.95 42.26 604.95 42.62C604.95 42.98 604.75 43.44 604.35 44.02C603.95 44.59 603.33 44.88 602.48 44.88H601.72V45.51H616.74V44.88H615.92C615.1 44.88 614.12 44.67 612.95 44.24Z" fill="white"/>
</svg>
