<svg width="26" height="21" viewBox="0 0 26 21" fill="none" xmlns="http://www.w3.org/2000/svg">
<path d="M22.24 2.61796C23.204 2.61796 23.458 3.30596 23.172 4.91796C22.846 6.76596 21.906 12.884 21.156 16.693C20.869 18.15 20.356 18.779 19.6 18.779C19.0754 18.7347 18.5725 18.5491 18.145 18.242C17.391 17.772 13.583 15.395 12.757 14.836C12.003 14.327 10.962 13.715 12.267 12.51C12.732 12.081 15.775 9.33696 18.146 7.20096C18.1961 7.15483 18.2309 7.09438 18.2455 7.02782C18.2601 6.96127 18.2539 6.89182 18.2277 6.82892C18.2015 6.76602 18.1565 6.7127 18.099 6.67622C18.0414 6.63973 17.974 6.62183 17.906 6.62496C17.8349 6.62546 17.7655 6.64628 17.706 6.68496C14.506 8.68496 10.078 11.463 9.51396 11.825C8.97356 12.2064 8.32939 12.4133 7.66796 12.418C7.23 12.4089 6.79519 12.3416 6.37496 12.218C5.26496 11.918 4.18096 11.558 3.75896 11.418C2.13396 10.892 2.51896 10.209 4.09796 9.55296C10.427 6.92496 18.618 3.71996 19.748 3.27596C20.5343 2.91457 21.3756 2.68742 22.237 2.60396L22.24 2.61796ZM22.237 0.985962C21.1483 1.05881 20.0822 1.32993 19.091 1.78596L18.92 1.85296C12.847 4.24396 7.33796 6.45396 3.40996 8.08396C2.79996 8.33996 0.92996 9.11496 0.99996 10.737C1.03096 11.437 1.43896 12.39 3.19996 12.961L3.32996 13.003C3.82296 13.163 4.84796 13.497 5.89896 13.782C6.47351 13.9462 7.06743 14.033 7.66496 14.04C8.45331 14.0437 9.23048 13.8534 9.92796 13.486C9.92518 13.577 9.92752 13.6682 9.93496 13.759C10.0235 14.2567 10.2264 14.7272 10.5277 15.1332C10.8289 15.5393 11.2203 15.8698 11.671 16.099L11.756 16.156C12.656 16.764 16.735 19.308 17.196 19.595C17.9044 20.0828 18.7365 20.3602 19.596 20.395C20.768 20.395 22.283 19.804 22.837 16.987C23.363 14.315 23.971 10.587 24.415 7.85896C24.604 6.69596 24.76 5.74196 24.858 5.18296C25.0296 4.62259 25.07 4.03024 24.976 3.45176C24.882 2.87328 24.6562 2.32418 24.316 1.84696C24.0512 1.56258 23.7278 1.33911 23.3681 1.192C23.0085 1.0449 22.6211 0.977667 22.233 0.994962L22.237 0.985962Z" fill="white"/>
</svg>
